<svg width="205" height="30" viewBox="0 0 205 30" fill="none" xmlns="http://www.w3.org/2000/svg">
<path d="M57.056 23.456C55.472 23.456 54.112 23.176 52.976 22.616C51.84 22.056 50.912 21.328 50.192 20.432C49.488 19.536 48.968 18.56 48.632 17.504C48.296 16.448 48.128 15.432 48.128 14.456V13.928C48.128 12.84 48.296 11.768 48.632 10.712C48.984 9.656 49.52 8.696 50.24 7.832C50.96 6.968 51.872 6.28 52.976 5.768C54.096 5.24 55.416 4.976 56.936 4.976C58.52 4.976 59.896 5.264 61.064 5.84C62.248 6.4 63.192 7.2 63.896 8.24C64.6 9.264 65.024 10.464 65.168 11.84H61.736C61.608 11.04 61.32 10.368 60.872 9.824C60.44 9.264 59.888 8.848 59.216 8.576C58.544 8.288 57.784 8.144 56.936 8.144C56.072 8.144 55.304 8.296 54.632 8.6C53.96 8.888 53.4 9.304 52.952 9.848C52.504 10.392 52.16 11.032 51.92 11.768C51.696 12.504 51.584 13.32 51.584 14.216C51.584 15.08 51.696 15.88 51.92 16.616C52.16 17.352 52.512 18 52.976 18.56C53.44 19.104 54.008 19.528 54.68 19.832C55.368 20.136 56.16 20.288 57.056 20.288C58.368 20.288 59.472 19.968 60.368 19.328C61.28 18.672 61.832 17.76 62.024 16.592H65.456C65.296 17.84 64.872 18.984 64.184 20.024C63.496 21.064 62.552 21.896 61.352 22.52C60.152 23.144 58.72 23.456 57.056 23.456ZM74.3319 23.456C73.1799 23.456 72.1639 23.272 71.2839 22.904C70.4039 22.536 69.6599 22.04 69.0519 21.416C68.4439 20.776 67.9799 20.056 67.6599 19.256C67.3559 18.456 67.2039 17.624 67.2039 16.76V16.256C67.2039 15.36 67.3639 14.512 67.6839 13.712C68.0199 12.896 68.4919 12.176 69.0999 11.552C69.7239 10.912 70.4759 10.416 71.3559 10.064C72.2359 9.696 73.2279 9.512 74.3319 9.512C75.4359 9.512 76.4279 9.696 77.3079 10.064C78.1879 10.416 78.9319 10.912 79.5399 11.552C80.1639 12.176 80.6359 12.896 80.9559 13.712C81.2759 14.512 81.4359 15.36 81.4359 16.256V16.76C81.4359 17.624 81.2759 18.456 80.9559 19.256C80.6519 20.056 80.1959 20.776 79.5879 21.416C78.9799 22.04 78.2359 22.536 77.3559 22.904C76.4759 23.272 75.4679 23.456 74.3319 23.456ZM74.3319 20.6C75.1479 20.6 75.8359 20.424 76.3959 20.072C76.9559 19.704 77.3799 19.216 77.6679 18.608C77.9559 17.984 78.0999 17.28 78.0999 16.496C78.0999 15.696 77.9479 14.992 77.6439 14.384C77.3559 13.76 76.9239 13.272 76.3479 12.92C75.7879 12.552 75.1159 12.368 74.3319 12.368C73.5479 12.368 72.8679 12.552 72.2919 12.92C71.7319 13.272 71.2999 13.76 70.9959 14.384C70.6919 14.992 70.5399 15.696 70.5399 16.496C70.5399 17.28 70.6839 17.984 70.9719 18.608C71.2759 19.216 71.7079 19.704 72.2679 20.072C72.8279 20.424 73.5159 20.6 74.3319 20.6ZM84.3569 23V9.968H86.9969V15.56H86.7569C86.7569 14.248 86.9249 13.152 87.2609 12.272C87.5969 11.376 88.0929 10.704 88.7489 10.256C89.4209 9.792 90.2529 9.56 91.2449 9.56H91.3889C92.3969 9.56 93.2289 9.792 93.8849 10.256C94.5569 10.704 95.0529 11.376 95.3729 12.272C95.7089 13.152 95.8769 14.248 95.8769 15.56H95.0369C95.0369 14.248 95.2049 13.152 95.5409 12.272C95.8929 11.376 96.3969 10.704 97.0529 10.256C97.7249 9.792 98.5569 9.56 99.5489 9.56H99.6929C100.701 9.56 101.541 9.792 102.213 10.256C102.885 10.704 103.389 11.376 103.725 12.272C104.077 13.152 104.253 14.248 104.253 15.56V23H100.917V15.248C100.917 14.432 100.709 13.784 100.293 13.304C99.8769 12.808 99.2849 12.56 98.5169 12.56C97.7489 12.56 97.1329 12.816 96.6689 13.328C96.2049 13.824 95.9729 14.496 95.9729 15.344V23H92.6369V15.248C92.6369 14.432 92.4289 13.784 92.0129 13.304C91.5969 12.808 91.0049 12.56 90.2369 12.56C89.4689 12.56 88.8529 12.816 88.3889 13.328C87.9249 13.824 87.6929 14.496 87.6929 15.344V23H84.3569ZM107.818 27.8V9.968H110.458V15.584L110.05 15.56C110.114 14.232 110.386 13.12 110.866 12.224C111.362 11.328 112.018 10.664 112.834 10.232C113.65 9.784 114.562 9.56 115.57 9.56C116.498 9.56 117.33 9.728 118.066 10.064C118.818 10.4 119.458 10.872 119.986 11.48C120.53 12.088 120.946 12.8 121.234 13.616C121.522 14.416 121.666 15.28 121.666 16.208V16.712C121.666 17.656 121.522 18.536 121.234 19.352C120.962 20.152 120.554 20.864 120.01 21.488C119.482 22.096 118.842 22.576 118.09 22.928C117.338 23.264 116.498 23.432 115.57 23.432C114.594 23.432 113.698 23.232 112.882 22.832C112.082 22.416 111.434 21.784 110.938 20.936C110.442 20.072 110.162 18.96 110.098 17.6L111.154 19.208V27.8H107.818ZM114.73 20.624C115.45 20.624 116.074 20.448 116.602 20.096C117.146 19.744 117.57 19.256 117.874 18.632C118.178 17.992 118.33 17.272 118.33 16.472C118.33 15.64 118.178 14.92 117.874 14.312C117.57 13.704 117.146 13.232 116.602 12.896C116.074 12.544 115.45 12.368 114.73 12.368C114.074 12.368 113.466 12.512 112.906 12.8C112.362 13.088 111.914 13.512 111.562 14.072C111.226 14.632 111.058 15.304 111.058 16.088V17.048C111.058 17.8 111.234 18.44 111.586 18.968C111.938 19.496 112.394 19.904 112.954 20.192C113.514 20.48 114.106 20.624 114.73 20.624ZM129.327 23.408C127.535 23.408 126.127 23.032 125.103 22.28C124.095 21.512 123.567 20.456 123.519 19.112H126.519C126.567 19.56 126.815 19.968 127.263 20.336C127.711 20.704 128.415 20.888 129.375 20.888C130.175 20.888 130.807 20.744 131.271 20.456C131.751 20.168 131.991 19.776 131.991 19.28C131.991 18.848 131.807 18.504 131.439 18.248C131.087 17.992 130.479 17.824 129.615 17.744L128.463 17.624C127.007 17.464 125.887 17.048 125.103 16.376C124.319 15.704 123.927 14.808 123.927 13.688C123.927 12.792 124.151 12.04 124.599 11.432C125.047 10.824 125.663 10.368 126.447 10.064C127.247 9.744 128.159 9.584 129.183 9.584C130.783 9.584 132.079 9.936 133.071 10.64C134.063 11.344 134.583 12.376 134.631 13.736H131.631C131.599 13.288 131.375 12.904 130.959 12.584C130.543 12.264 129.943 12.104 129.159 12.104C128.455 12.104 127.911 12.24 127.527 12.512C127.143 12.784 126.951 13.136 126.951 13.568C126.951 13.984 127.103 14.304 127.407 14.528C127.727 14.752 128.239 14.904 128.943 14.984L130.095 15.104C131.631 15.264 132.831 15.688 133.695 16.376C134.575 17.064 135.015 17.992 135.015 19.16C135.015 20.024 134.775 20.776 134.295 21.416C133.831 22.04 133.175 22.528 132.327 22.88C131.479 23.232 130.479 23.408 129.327 23.408ZM137.771 23V5.48H141.107V15.704H140.531C140.531 14.392 140.699 13.28 141.035 12.368C141.371 11.456 141.867 10.76 142.523 10.28C143.195 9.8 144.043 9.56 145.067 9.56H145.211C146.699 9.56 147.827 10.072 148.595 11.096C149.363 12.12 149.747 13.608 149.747 15.56V23H146.411V15.248C146.411 14.416 146.171 13.76 145.691 13.28C145.227 12.8 144.611 12.56 143.843 12.56C143.027 12.56 142.363 12.832 141.851 13.376C141.355 13.904 141.107 14.6 141.107 15.464V23H137.771ZM159.166 23.456C158.046 23.456 157.062 23.264 156.214 22.88C155.382 22.496 154.686 21.984 154.126 21.344C153.582 20.688 153.166 19.96 152.878 19.16C152.606 18.36 152.47 17.544 152.47 16.712V16.256C152.47 15.392 152.606 14.56 152.878 13.76C153.166 12.944 153.582 12.224 154.126 11.6C154.686 10.96 155.374 10.456 156.19 10.088C157.006 9.704 157.95 9.512 159.022 9.512C160.43 9.512 161.606 9.824 162.55 10.448C163.51 11.056 164.23 11.864 164.71 12.872C165.19 13.864 165.43 14.936 165.43 16.088V17.288H153.886V15.248H163.342L162.31 16.256C162.31 15.424 162.19 14.712 161.95 14.12C161.71 13.528 161.342 13.072 160.846 12.752C160.366 12.432 159.758 12.272 159.022 12.272C158.286 12.272 157.662 12.44 157.15 12.776C156.638 13.112 156.246 13.6 155.974 14.24C155.718 14.864 155.59 15.616 155.59 16.496C155.59 17.312 155.718 18.04 155.974 18.68C156.23 19.304 156.622 19.8 157.15 20.168C157.678 20.52 158.35 20.696 159.166 20.696C159.982 20.696 160.646 20.536 161.158 20.216C161.67 19.88 161.998 19.472 162.142 18.992H165.214C165.022 19.888 164.654 20.672 164.109 21.344C163.566 22.016 162.87 22.536 162.022 22.904C161.19 23.272 160.238 23.456 159.166 23.456ZM174.048 23.456C172.928 23.456 171.944 23.264 171.096 22.88C170.264 22.496 169.568 21.984 169.008 21.344C168.464 20.688 168.048 19.96 167.76 19.16C167.488 18.36 167.352 17.544 167.352 16.712V16.256C167.352 15.392 167.488 14.56 167.76 13.76C168.048 12.944 168.464 12.224 169.008 11.6C169.568 10.96 170.256 10.456 171.072 10.088C171.888 9.704 172.832 9.512 173.904 9.512C175.312 9.512 176.488 9.824 177.432 10.448C178.392 11.056 179.112 11.864 179.592 12.872C180.072 13.864 180.312 14.936 180.312 16.088V17.288H168.768V15.248H178.224L177.192 16.256C177.192 15.424 177.072 14.712 176.832 14.12C176.592 13.528 176.224 13.072 175.728 12.752C175.248 12.432 174.64 12.272 173.904 12.272C173.168 12.272 172.544 12.44 172.032 12.776C171.52 13.112 171.128 13.6 170.856 14.24C170.6 14.864 170.472 15.616 170.472 16.496C170.472 17.312 170.6 18.04 170.856 18.68C171.112 19.304 171.504 19.8 172.032 20.168C172.56 20.52 173.232 20.696 174.048 20.696C174.864 20.696 175.528 20.536 176.04 20.216C176.552 19.88 176.88 19.472 177.024 18.992H180.096C179.904 19.888 179.536 20.672 178.992 21.344C178.448 22.016 177.752 22.536 176.904 22.904C176.072 23.272 175.12 23.456 174.048 23.456ZM188.763 23.168C187.563 23.168 186.571 23.016 185.787 22.712C185.019 22.392 184.443 21.864 184.059 21.128C183.675 20.376 183.483 19.368 183.483 18.104L183.507 6.296H186.627L186.603 18.32C186.603 18.96 186.771 19.456 187.107 19.808C187.459 20.144 187.955 20.312 188.595 20.312H190.635V23.168H188.763ZM181.419 12.416V9.968H190.635V12.416H181.419ZM198.069 23.408C196.277 23.408 194.869 23.032 193.845 22.28C192.837 21.512 192.309 20.456 192.261 19.112H195.261C195.309 19.56 195.557 19.968 196.005 20.336C196.453 20.704 197.157 20.888 198.117 20.888C198.917 20.888 199.549 20.744 200.013 20.456C200.493 20.168 200.733 19.776 200.733 19.28C200.733 18.848 200.549 18.504 200.181 18.248C199.829 17.992 199.221 17.824 198.357 17.744L197.205 17.624C195.749 17.464 194.629 17.048 193.845 16.376C193.061 15.704 192.669 14.808 192.669 13.688C192.669 12.792 192.893 12.04 193.341 11.432C193.789 10.824 194.405 10.368 195.189 10.064C195.989 9.744 196.901 9.584 197.925 9.584C199.525 9.584 200.821 9.936 201.813 10.64C202.805 11.344 203.325 12.376 203.373 13.736H200.373C200.341 13.288 200.117 12.904 199.701 12.584C199.285 12.264 198.685 12.104 197.901 12.104C197.197 12.104 196.653 12.24 196.269 12.512C195.885 12.784 195.693 13.136 195.693 13.568C195.693 13.984 195.845 14.304 196.149 14.528C196.469 14.752 196.981 14.904 197.685 14.984L198.837 15.104C200.373 15.264 201.573 15.688 202.437 16.376C203.317 17.064 203.757 17.992 203.757 19.16C203.757 20.024 203.517 20.776 203.037 21.416C202.573 22.04 201.917 22.528 201.069 22.88C200.221 23.232 199.221 23.408 198.069 23.408Z" fill="white"/>
<path fill-rule="evenodd" clip-rule="evenodd" d="M9.98578 5.11462L0 15C1.99734 16.9773 4.27899 18.6437 6.76664 19.9474C7.45424 21.753 8.53203 23.4463 10 24.8995C15.5229 30.3668 24.4772 30.3668 30 24.8995C31.468 23.4463 32.5458 21.753 33.2334 19.9473C35.721 18.6437 38.0027 16.9773 40 15L30.0223 5.12266C30.0149 5.11527 30.0075 5.10788 30 5.1005C24.4772 -0.366833 15.5229 -0.366833 10 5.1005C9.99527 5.10521 9.99052 5.10991 9.98578 5.11462ZM29.0445 21.7309C26.1345 22.7031 23.0797 23.201 20 23.201C16.9203 23.201 13.8656 22.7031 10.9556 21.7309C11.2709 22.145 11.619 22.5424 12 22.9196C16.4183 27.2935 23.5817 27.2935 28 22.9196C28.381 22.5424 28.7292 22.145 29.0445 21.7309ZM12.2051 6.8824C12.9554 7.37311 13.7532 7.79302 14.588 8.13536C16.3038 8.83892 18.1428 9.20104 20 9.20104C21.8572 9.20104 23.6962 8.83892 25.412 8.13536C26.2468 7.79302 27.0446 7.3731 27.795 6.88238C23.4318 2.77253 16.5682 2.77254 12.2051 6.8824Z" fill="white"/>
</svg>
